<mxfile host="app.diagrams.net" modified="2022-05-04T08:35:01.113Z" agent="5.0 (Windows NT 10.0; Win64; x64) AppleWebKit/537.36 (KHTML, like Gecko) Chrome/101.0.4951.54 Safari/537.36" etag="8VLlJK6WXD4ImPpmtNrj" version="17.5.0" type="github">
  <diagram id="C5RBs43oDa-KdzZeNtuy" name="Page-1">
    <mxGraphModel dx="1185" dy="628" grid="1" gridSize="10" guides="1" tooltips="1" connect="1" arrows="1" fold="1" page="1" pageScale="1" pageWidth="827" pageHeight="1169" math="0" shadow="0">
      <root>
        <mxCell id="WIyWlLk6GJQsqaUBKTNV-0" />
        <mxCell id="WIyWlLk6GJQsqaUBKTNV-1" parent="WIyWlLk6GJQsqaUBKTNV-0" />
        <mxCell id="WIyWlLk6GJQsqaUBKTNV-2" value="" style="rounded=0;html=1;jettySize=auto;orthogonalLoop=1;fontSize=11;endArrow=block;endFill=0;endSize=8;strokeWidth=1;shadow=0;labelBackgroundColor=none;edgeStyle=orthogonalEdgeStyle;" parent="WIyWlLk6GJQsqaUBKTNV-1" source="WIyWlLk6GJQsqaUBKTNV-3" target="WIyWlLk6GJQsqaUBKTNV-6" edge="1">
          <mxGeometry relative="1" as="geometry" />
        </mxCell>
        <mxCell id="WIyWlLk6GJQsqaUBKTNV-3" value="url: course_page" style="rounded=1;whiteSpace=wrap;html=1;fontSize=12;glass=0;strokeWidth=1;shadow=0;" parent="WIyWlLk6GJQsqaUBKTNV-1" vertex="1">
          <mxGeometry x="160" y="80" width="120" height="40" as="geometry" />
        </mxCell>
        <mxCell id="WIyWlLk6GJQsqaUBKTNV-4" value="Yes" style="rounded=0;html=1;jettySize=auto;orthogonalLoop=1;fontSize=11;endArrow=block;endFill=0;endSize=8;strokeWidth=1;shadow=0;labelBackgroundColor=none;edgeStyle=orthogonalEdgeStyle;entryX=-0.003;entryY=0.567;entryDx=0;entryDy=0;entryPerimeter=0;" parent="WIyWlLk6GJQsqaUBKTNV-1" source="WIyWlLk6GJQsqaUBKTNV-6" target="X5-AiLe9VOl4MUnoSrG--8" edge="1">
          <mxGeometry x="-0.0506" y="-20" relative="1" as="geometry">
            <mxPoint as="offset" />
            <mxPoint x="140" y="350" as="targetPoint" />
            <Array as="points">
              <mxPoint x="250" y="265" />
              <mxPoint x="250" y="333" />
            </Array>
          </mxGeometry>
        </mxCell>
        <mxCell id="WIyWlLk6GJQsqaUBKTNV-5" value="No" style="edgeStyle=orthogonalEdgeStyle;rounded=0;html=1;jettySize=auto;orthogonalLoop=1;fontSize=11;endArrow=block;endFill=0;endSize=8;strokeWidth=1;shadow=0;labelBackgroundColor=none;" parent="WIyWlLk6GJQsqaUBKTNV-1" source="WIyWlLk6GJQsqaUBKTNV-6" target="WIyWlLk6GJQsqaUBKTNV-7" edge="1">
          <mxGeometry x="0.0004" y="20" relative="1" as="geometry">
            <mxPoint as="offset" />
            <Array as="points">
              <mxPoint x="250" y="265" />
              <mxPoint x="250" y="210" />
            </Array>
          </mxGeometry>
        </mxCell>
        <mxCell id="WIyWlLk6GJQsqaUBKTNV-6" value="cookie: teachify_token" style="rhombus;whiteSpace=wrap;html=1;shadow=0;fontFamily=Helvetica;fontSize=12;align=center;strokeWidth=1;spacing=6;spacingTop=-4;fillColor=#fff2cc;strokeColor=#d6b656;" parent="WIyWlLk6GJQsqaUBKTNV-1" vertex="1">
          <mxGeometry x="70" y="225" width="100" height="80" as="geometry" />
        </mxCell>
        <mxCell id="WIyWlLk6GJQsqaUBKTNV-7" value="graphQL without token" style="rounded=1;whiteSpace=wrap;html=1;fontSize=12;glass=0;strokeWidth=1;shadow=0;" parent="WIyWlLk6GJQsqaUBKTNV-1" vertex="1">
          <mxGeometry x="345" y="190" width="130" height="40" as="geometry" />
        </mxCell>
        <mxCell id="X5-AiLe9VOl4MUnoSrG--2" value="/service/course/:slug_id" style="text;html=1;strokeColor=none;fillColor=none;align=center;verticalAlign=middle;whiteSpace=wrap;rounded=0;" vertex="1" parent="WIyWlLk6GJQsqaUBKTNV-1">
          <mxGeometry x="290" y="85" width="150" height="30" as="geometry" />
        </mxCell>
        <mxCell id="X5-AiLe9VOl4MUnoSrG--6" value="" style="endArrow=classic;html=1;rounded=0;exitX=1;exitY=0.5;exitDx=0;exitDy=0;" edge="1" parent="WIyWlLk6GJQsqaUBKTNV-1" source="WIyWlLk6GJQsqaUBKTNV-7" target="X5-AiLe9VOl4MUnoSrG--7">
          <mxGeometry width="50" height="50" relative="1" as="geometry">
            <mxPoint x="470" y="210" as="sourcePoint" />
            <mxPoint x="520" y="210" as="targetPoint" />
          </mxGeometry>
        </mxCell>
        <mxCell id="X5-AiLe9VOl4MUnoSrG--13" value="" style="edgeStyle=orthogonalEdgeStyle;rounded=0;orthogonalLoop=1;jettySize=auto;html=1;" edge="1" parent="WIyWlLk6GJQsqaUBKTNV-1" source="X5-AiLe9VOl4MUnoSrG--7" target="X5-AiLe9VOl4MUnoSrG--12">
          <mxGeometry relative="1" as="geometry" />
        </mxCell>
        <mxCell id="X5-AiLe9VOl4MUnoSrG--7" value="Get selected Course by slug_id" style="whiteSpace=wrap;html=1;aspect=fixed;" vertex="1" parent="WIyWlLk6GJQsqaUBKTNV-1">
          <mxGeometry x="540" y="170" width="80" height="80" as="geometry" />
        </mxCell>
        <mxCell id="X5-AiLe9VOl4MUnoSrG--25" value="" style="edgeStyle=orthogonalEdgeStyle;rounded=0;orthogonalLoop=1;jettySize=auto;html=1;" edge="1" parent="WIyWlLk6GJQsqaUBKTNV-1" source="X5-AiLe9VOl4MUnoSrG--8" target="X5-AiLe9VOl4MUnoSrG--24">
          <mxGeometry relative="1" as="geometry" />
        </mxCell>
        <mxCell id="X5-AiLe9VOl4MUnoSrG--26" value="200" style="edgeLabel;html=1;align=center;verticalAlign=middle;resizable=0;points=[];" vertex="1" connectable="0" parent="X5-AiLe9VOl4MUnoSrG--25">
          <mxGeometry x="-0.1333" relative="1" as="geometry">
            <mxPoint as="offset" />
          </mxGeometry>
        </mxCell>
        <mxCell id="X5-AiLe9VOl4MUnoSrG--8" value="graphQL with token" style="rounded=1;whiteSpace=wrap;html=1;fontSize=12;glass=0;strokeWidth=1;shadow=0;" vertex="1" parent="WIyWlLk6GJQsqaUBKTNV-1">
          <mxGeometry x="345" y="310" width="130" height="40" as="geometry" />
        </mxCell>
        <mxCell id="X5-AiLe9VOl4MUnoSrG--10" value="401 status code: expired" style="endArrow=classic;html=1;rounded=0;entryX=0.5;entryY=0;entryDx=0;entryDy=0;" edge="1" parent="WIyWlLk6GJQsqaUBKTNV-1" target="X5-AiLe9VOl4MUnoSrG--11">
          <mxGeometry width="50" height="50" relative="1" as="geometry">
            <mxPoint x="394.76" y="350" as="sourcePoint" />
            <mxPoint x="395" y="410" as="targetPoint" />
          </mxGeometry>
        </mxCell>
        <mxCell id="X5-AiLe9VOl4MUnoSrG--11" value="remove teachify_token and&lt;br&gt;redirect&lt;br&gt;/member/login?redirect=&lt;font color=&quot;#ff0000&quot;&gt;/service/course/:slug_id&lt;/font&gt;" style="rounded=1;whiteSpace=wrap;html=1;" vertex="1" parent="WIyWlLk6GJQsqaUBKTNV-1">
          <mxGeometry x="300" y="460" width="190" height="100" as="geometry" />
        </mxCell>
        <mxCell id="X5-AiLe9VOl4MUnoSrG--54" value="" style="edgeStyle=orthogonalEdgeStyle;rounded=0;orthogonalLoop=1;jettySize=auto;html=1;" edge="1" parent="WIyWlLk6GJQsqaUBKTNV-1" source="X5-AiLe9VOl4MUnoSrG--12" target="X5-AiLe9VOl4MUnoSrG--53">
          <mxGeometry relative="1" as="geometry" />
        </mxCell>
        <mxCell id="X5-AiLe9VOl4MUnoSrG--12" value="button: 登入購買" style="rounded=1;whiteSpace=wrap;html=1;fillColor=#d5e8d4;strokeColor=#82b366;" vertex="1" parent="WIyWlLk6GJQsqaUBKTNV-1">
          <mxGeometry x="670" y="195" width="100" height="30" as="geometry" />
        </mxCell>
        <mxCell id="X5-AiLe9VOl4MUnoSrG--17" value="" style="edgeStyle=orthogonalEdgeStyle;rounded=0;orthogonalLoop=1;jettySize=auto;html=1;strokeColor=none;" edge="1" parent="WIyWlLk6GJQsqaUBKTNV-1" source="X5-AiLe9VOl4MUnoSrG--14" target="X5-AiLe9VOl4MUnoSrG--7">
          <mxGeometry relative="1" as="geometry">
            <Array as="points">
              <mxPoint x="520" y="170" />
              <mxPoint x="520" y="170" />
            </Array>
          </mxGeometry>
        </mxCell>
        <mxCell id="X5-AiLe9VOl4MUnoSrG--14" value="課程頁面" style="text;html=1;align=center;verticalAlign=middle;resizable=0;points=[];autosize=1;strokeColor=#314354;fillColor=#647687;fontColor=#ffffff;" vertex="1" parent="WIyWlLk6GJQsqaUBKTNV-1">
          <mxGeometry x="560" y="260" width="60" height="20" as="geometry" />
        </mxCell>
        <mxCell id="X5-AiLe9VOl4MUnoSrG--16" value="" style="edgeStyle=orthogonalEdgeStyle;rounded=0;orthogonalLoop=1;jettySize=auto;html=1;strokeColor=none;" edge="1" parent="WIyWlLk6GJQsqaUBKTNV-1" source="X5-AiLe9VOl4MUnoSrG--15" target="WIyWlLk6GJQsqaUBKTNV-7">
          <mxGeometry relative="1" as="geometry" />
        </mxCell>
        <mxCell id="X5-AiLe9VOl4MUnoSrG--15" value="代表沒登入" style="text;html=1;align=center;verticalAlign=middle;resizable=0;points=[];autosize=1;strokeColor=none;fillColor=none;" vertex="1" parent="WIyWlLk6GJQsqaUBKTNV-1">
          <mxGeometry x="345" y="160" width="80" height="20" as="geometry" />
        </mxCell>
        <mxCell id="X5-AiLe9VOl4MUnoSrG--19" value="" style="edgeStyle=orthogonalEdgeStyle;rounded=0;orthogonalLoop=1;jettySize=auto;html=1;" edge="1" parent="WIyWlLk6GJQsqaUBKTNV-1" source="X5-AiLe9VOl4MUnoSrG--18" target="WIyWlLk6GJQsqaUBKTNV-3">
          <mxGeometry relative="1" as="geometry" />
        </mxCell>
        <mxCell id="X5-AiLe9VOl4MUnoSrG--18" value="user action" style="shape=umlActor;verticalLabelPosition=bottom;verticalAlign=top;html=1;outlineConnect=0;" vertex="1" parent="WIyWlLk6GJQsqaUBKTNV-1">
          <mxGeometry x="110" y="70" width="30" height="60" as="geometry" />
        </mxCell>
        <mxCell id="X5-AiLe9VOl4MUnoSrG--22" value="" style="edgeStyle=orthogonalEdgeStyle;rounded=0;orthogonalLoop=1;jettySize=auto;html=1;shape=link;" edge="1" parent="WIyWlLk6GJQsqaUBKTNV-1" source="X5-AiLe9VOl4MUnoSrG--20" target="X5-AiLe9VOl4MUnoSrG--8">
          <mxGeometry relative="1" as="geometry" />
        </mxCell>
        <mxCell id="X5-AiLe9VOl4MUnoSrG--23" value="" style="edgeStyle=orthogonalEdgeStyle;shape=link;rounded=0;orthogonalLoop=1;jettySize=auto;html=1;" edge="1" parent="WIyWlLk6GJQsqaUBKTNV-1" source="X5-AiLe9VOl4MUnoSrG--20">
          <mxGeometry relative="1" as="geometry">
            <mxPoint x="410" y="230" as="targetPoint" />
          </mxGeometry>
        </mxCell>
        <mxCell id="X5-AiLe9VOl4MUnoSrG--20" value="course(subdomain: &quot;udnhealth&quot;, slug: $slug)" style="text;html=1;strokeColor=#ae4132;fillColor=#fad9d5;align=center;verticalAlign=middle;whiteSpace=wrap;rounded=0;" vertex="1" parent="WIyWlLk6GJQsqaUBKTNV-1">
          <mxGeometry x="285" y="250" width="250" height="30" as="geometry" />
        </mxCell>
        <mxCell id="X5-AiLe9VOl4MUnoSrG--31" style="edgeStyle=orthogonalEdgeStyle;rounded=0;orthogonalLoop=1;jettySize=auto;html=1;entryX=0;entryY=0.5;entryDx=0;entryDy=0;" edge="1" parent="WIyWlLk6GJQsqaUBKTNV-1" source="X5-AiLe9VOl4MUnoSrG--24" target="X5-AiLe9VOl4MUnoSrG--30">
          <mxGeometry relative="1" as="geometry" />
        </mxCell>
        <mxCell id="X5-AiLe9VOl4MUnoSrG--24" value="Get selected Course by slug_id" style="rounded=0;whiteSpace=wrap;html=1;fontSize=12;glass=0;strokeWidth=1;shadow=0;" vertex="1" parent="WIyWlLk6GJQsqaUBKTNV-1">
          <mxGeometry x="550" y="290" width="75" height="80" as="geometry" />
        </mxCell>
        <mxCell id="X5-AiLe9VOl4MUnoSrG--33" value="yes" style="edgeStyle=orthogonalEdgeStyle;rounded=0;orthogonalLoop=1;jettySize=auto;html=1;entryX=0.5;entryY=0;entryDx=0;entryDy=0;entryPerimeter=0;" edge="1" parent="WIyWlLk6GJQsqaUBKTNV-1" source="X5-AiLe9VOl4MUnoSrG--30" target="X5-AiLe9VOl4MUnoSrG--34">
          <mxGeometry x="-0.125" relative="1" as="geometry">
            <mxPoint x="640.0285714285715" y="490" as="targetPoint" />
            <Array as="points">
              <mxPoint x="710" y="420" />
              <mxPoint x="660" y="420" />
            </Array>
            <mxPoint as="offset" />
          </mxGeometry>
        </mxCell>
        <mxCell id="X5-AiLe9VOl4MUnoSrG--47" value="" style="edgeStyle=orthogonalEdgeStyle;rounded=0;orthogonalLoop=1;jettySize=auto;html=1;" edge="1" parent="WIyWlLk6GJQsqaUBKTNV-1" source="X5-AiLe9VOl4MUnoSrG--30" target="X5-AiLe9VOl4MUnoSrG--38">
          <mxGeometry relative="1" as="geometry">
            <Array as="points">
              <mxPoint x="770" y="430" />
              <mxPoint x="770" y="430" />
            </Array>
          </mxGeometry>
        </mxCell>
        <mxCell id="X5-AiLe9VOl4MUnoSrG--48" value="no" style="edgeLabel;html=1;align=center;verticalAlign=middle;resizable=0;points=[];" vertex="1" connectable="0" parent="X5-AiLe9VOl4MUnoSrG--47">
          <mxGeometry x="0.0316" y="1" relative="1" as="geometry">
            <mxPoint as="offset" />
          </mxGeometry>
        </mxCell>
        <mxCell id="X5-AiLe9VOl4MUnoSrG--30" value="isPurchased" style="rhombus;whiteSpace=wrap;html=1;rounded=0;glass=0;" vertex="1" parent="WIyWlLk6GJQsqaUBKTNV-1">
          <mxGeometry x="690" y="280" width="100" height="100" as="geometry" />
        </mxCell>
        <mxCell id="X5-AiLe9VOl4MUnoSrG--34" value="button: 觀看課程" style="rounded=1;whiteSpace=wrap;html=1;fillColor=#d5e8d4;strokeColor=#82b366;" vertex="1" parent="WIyWlLk6GJQsqaUBKTNV-1">
          <mxGeometry x="610" y="460" width="100" height="30" as="geometry" />
        </mxCell>
        <mxCell id="X5-AiLe9VOl4MUnoSrG--41" value="" style="edgeStyle=orthogonalEdgeStyle;rounded=0;orthogonalLoop=1;jettySize=auto;html=1;" edge="1" parent="WIyWlLk6GJQsqaUBKTNV-1" source="X5-AiLe9VOl4MUnoSrG--38" target="X5-AiLe9VOl4MUnoSrG--40">
          <mxGeometry relative="1" as="geometry" />
        </mxCell>
        <mxCell id="X5-AiLe9VOl4MUnoSrG--38" value="button: 購買課程" style="rounded=1;whiteSpace=wrap;html=1;fillColor=#d5e8d4;strokeColor=#82b366;" vertex="1" parent="WIyWlLk6GJQsqaUBKTNV-1">
          <mxGeometry x="727" y="460" width="100" height="30" as="geometry" />
        </mxCell>
        <mxCell id="X5-AiLe9VOl4MUnoSrG--40" value="redirect:&amp;nbsp;&lt;br&gt;/member/payment/:slug_id" style="rounded=1;whiteSpace=wrap;html=1;glass=0;" vertex="1" parent="WIyWlLk6GJQsqaUBKTNV-1">
          <mxGeometry x="640" y="640" width="150" height="60" as="geometry" />
        </mxCell>
        <mxCell id="X5-AiLe9VOl4MUnoSrG--42" value="結賬頁面" style="text;html=1;strokeColor=#314354;fillColor=#647687;align=center;verticalAlign=middle;whiteSpace=wrap;rounded=0;glass=0;fontColor=#ffffff;" vertex="1" parent="WIyWlLk6GJQsqaUBKTNV-1">
          <mxGeometry x="557.5" y="655" width="60" height="30" as="geometry" />
        </mxCell>
        <mxCell id="X5-AiLe9VOl4MUnoSrG--43" value="點下購買" style="text;html=1;strokeColor=none;fillColor=none;align=center;verticalAlign=middle;whiteSpace=wrap;rounded=0;glass=0;" vertex="1" parent="WIyWlLk6GJQsqaUBKTNV-1">
          <mxGeometry x="700" y="530" width="60" height="30" as="geometry" />
        </mxCell>
        <mxCell id="X5-AiLe9VOl4MUnoSrG--50" value="登入成功取得token" style="curved=1;endArrow=classic;html=1;rounded=0;exitX=0;exitY=0.5;exitDx=0;exitDy=0;entryX=0.5;entryY=1;entryDx=0;entryDy=0;" edge="1" parent="WIyWlLk6GJQsqaUBKTNV-1" source="X5-AiLe9VOl4MUnoSrG--11" target="WIyWlLk6GJQsqaUBKTNV-6">
          <mxGeometry width="50" height="50" relative="1" as="geometry">
            <mxPoint x="364" y="600" as="sourcePoint" />
            <mxPoint x="90" y="330" as="targetPoint" />
            <Array as="points">
              <mxPoint x="190" y="480" />
              <mxPoint x="150" y="460" />
              <mxPoint x="120" y="420" />
            </Array>
          </mxGeometry>
        </mxCell>
        <mxCell id="X5-AiLe9VOl4MUnoSrG--52" value="登入頁面" style="text;html=1;strokeColor=#314354;fillColor=#647687;align=center;verticalAlign=middle;whiteSpace=wrap;rounded=0;glass=0;fontColor=#ffffff;" vertex="1" parent="WIyWlLk6GJQsqaUBKTNV-1">
          <mxGeometry x="365" y="570" width="60" height="30" as="geometry" />
        </mxCell>
        <mxCell id="X5-AiLe9VOl4MUnoSrG--53" value="登入頁面&lt;br&gt;/member/login" style="whiteSpace=wrap;html=1;rounded=1;" vertex="1" parent="WIyWlLk6GJQsqaUBKTNV-1">
          <mxGeometry x="660" y="70" width="120" height="60" as="geometry" />
        </mxCell>
      </root>
    </mxGraphModel>
  </diagram>
</mxfile>
